# xmcd
#
# Track frame offsets:
#	150
#	15338
#	35228
#	52637
#	71122
#	86389
#	99981
#	117905
#	133511
#	149757
#	165044
#	187610
#	209284
#
# Disc length: 3022 seconds
#
# Revision: 0
# Processed by: cddbd v1.5.2PL0 Copyright (c) Steve Scherf et al.
# Submitted via: EZCDAudioConverter 2.1.4.1
#
DISCID=a00bcc0d
DTITLE=Adrhyana Ribeiro - Take it easy my brother Jorge
DYEAR=2013
DGENRE=
TTITLE0=Take it easy my brother Charles
TTITLE1=Oba lá vem ela
TTITLE2=Se você quiser mas sem bronquear
TTITLE3=Filho maravilha
TTITLE4=Os alquimistas estão chegando
TTITLE5=Eles querem amar
TTITLE6=País tropical
TTITLE7=O telefone tocou novamente
TTITLE8=Caramba!... Galileu da Galiléia
TTITLE9=Taj Mahal
TTITLE10=Jorge de Capadócia
TTITLE11=Engenho de dentro
TTITLE12=Filho maravilha
EXTD=
EXTT0=
EXTT1=
EXTT2=
EXTT3=
EXTT4=
EXTT5=
EXTT6=
EXTT7=
EXTT8=
EXTT9=
EXTT10=
EXTT11=
EXTT12=
PLAYORDER=
